<svg xmlns="http://www.w3.org/2000/svg" xmlns:xlink="http://www.w3.org/1999/xlink" viewBox="0 0 333 123"><defs><linearGradient id="New_Gradient_Swatch" x1="-0.42" y1="87.98" x2="333" y2="87.98" gradientUnits="userSpaceOnUse"><stop offset="0" stop-color="#e6cdc3" stop-opacity="0"/><stop offset="1" stop-color="#b3b0a1"/></linearGradient><pattern id="_6_lpi_50_" data-name="6 lpi 50%" width="72" height="72" patternTransform="translate(-49.82 -17.78) scale(0.82)" patternUnits="userSpaceOnUse" viewBox="0 0 72 72"><rect width="72" height="72" fill="none"/><line x1="71.75" y1="66" x2="144.25" y2="66" fill="none" stroke="#231f20" stroke-width="6"/><line x1="71.75" y1="42" x2="144.25" y2="42" fill="none" stroke="#231f20" stroke-width="6"/><line x1="71.75" y1="18" x2="144.25" y2="18" fill="none" stroke="#231f20" stroke-width="6"/><line x1="71.75" y1="54" x2="144.25" y2="54" fill="none" stroke="#231f20" stroke-width="6"/><line x1="71.75" y1="30" x2="144.25" y2="30" fill="none" stroke="#231f20" stroke-width="6"/><line x1="71.75" y1="6" x2="144.25" y2="6" fill="none" stroke="#231f20" stroke-width="6"/><line x1="-0.25" y1="66" x2="72.25" y2="66" fill="none" stroke="#231f20" stroke-width="6"/><line x1="-0.25" y1="42" x2="72.25" y2="42" fill="none" stroke="#231f20" stroke-width="6"/><line x1="-0.25" y1="18" x2="72.25" y2="18" fill="none" stroke="#231f20" stroke-width="6"/><line x1="-0.25" y1="54" x2="72.25" y2="54" fill="none" stroke="#231f20" stroke-width="6"/><line x1="-0.25" y1="30" x2="72.25" y2="30" fill="none" stroke="#231f20" stroke-width="6"/><line x1="-0.25" y1="6" x2="72.25" y2="6" fill="none" stroke="#231f20" stroke-width="6"/><line x1="-72.25" y1="66" x2="0.25" y2="66" fill="none" stroke="#231f20" stroke-width="6"/><line x1="-72.25" y1="42" x2="0.25" y2="42" fill="none" stroke="#231f20" stroke-width="6"/><line x1="-72.25" y1="18" x2="0.25" y2="18" fill="none" stroke="#231f20" stroke-width="6"/><line x1="-72.25" y1="54" x2="0.25" y2="54" fill="none" stroke="#231f20" stroke-width="6"/><line x1="-72.25" y1="30" x2="0.25" y2="30" fill="none" stroke="#231f20" stroke-width="6"/><line x1="-72.25" y1="6" x2="0.25" y2="6" fill="none" stroke="#231f20" stroke-width="6"/></pattern></defs><title>larkVCR_platform</title><g id="BoardStripe"><g id="LarkVCR_platform"><polygon points="-0.42 53 333 53 238.64 122.96 -0.42 75.83 -0.42 53" fill="url(#New_Gradient_Swatch)"/><polygon points="-0.42 53 333 53 238.64 122.96 -0.42 75.83 -0.42 53" fill="url(#_6_lpi_50_)"/></g></g><g id="Lark"><path d="M114.65,47.41V44.26h6.42V3.14h-6.42V0H125V3.14H125V44.26h19.55V32h3.77V47.41Z" fill="#161616"/><path d="M173.36,47.41V42.73a21,21,0,0,1-5.86,3.77,16,16,0,0,1-6.07,1.4A9.92,9.92,0,0,1,154.09,45a9.45,9.45,0,0,1-2.93-6.91,9.14,9.14,0,0,1,3.35-7.26,13.36,13.36,0,0,1,9-2.93,20.41,20.41,0,0,1,4.61.63,21.26,21.26,0,0,1,5.24,2.09V22.83q0-3.63-2.37-5.17a11.52,11.52,0,0,0-6.42-1.61,11.2,11.2,0,0,0-2.34.28q-1.29.28-2.41.59t-2.65.8l-.91-2.16q1.61-.63,2.86-1a24.91,24.91,0,0,1,2.76-.73,13.83,13.83,0,0,1,2.83-.31q6,0,9.15,2.3T177,22.83V44.26h5.52v3.14Zm0-13.82A20.66,20.66,0,0,0,169,31.49a15,15,0,0,0-4.89-.84,9.77,9.77,0,0,0-6.84,2.23,7.18,7.18,0,0,0-2.44,5.52,6.38,6.38,0,0,0,2,4.68,7.36,7.36,0,0,0,5.45,2,12.94,12.94,0,0,0,5.93-1.54,17.2,17.2,0,0,0,5.17-3.91Z" fill="#161616"/><path d="M206,17q-7.12,0-10.54,3t-3.42,9.5v14.8h6.77v3.14h-10.4V17.52h-6.28V14.38h9.91v5.86q.07-.14.59-1a16.23,16.23,0,0,1,1.57-2,8,8,0,0,1,2.23-1.82,14.93,14.93,0,0,1,2.09-.91,16.93,16.93,0,0,1,2.48-.66q1.29-.24,2.58-.38a14.31,14.31,0,0,1,2.41-.07l1.33.07V17Z" fill="#161616"/><path d="M235.22,47.41l-19.55-17V44.26h6.07v3.14h-9.63V44.26H212V3.14H206V0h9.71V29.18q2.23-1.47,5.13-3.46l5.72-3.91q2.83-1.92,5.34-3.67l3.91-2.72q1.4-1,1.54-1h4.47v3.14h-3.56L220.14,29.88l17.17,14.38h5v3.14Z" fill="#161616"/><path d="M265.37,28.9l-6.95,19h-1.74l-7.19-19h-2.66v-1.8h4.26l.47,1.48,6.12,16,5.77-15.64h-2.37v-1.8H268v1.8Z" fill="#161616"/><path d="M269.9,47.64V45.28H272v2.37Z" fill="#161616"/><path d="M294.32,44.11a9,9,0,0,1-2.25,2.2,10.09,10.09,0,0,1-5.71,1.63A9.87,9.87,0,0,1,278.95,45a10.54,10.54,0,0,1-2.84-7.66,10.63,10.63,0,0,1,2.84-7.63,10.26,10.26,0,0,1,11.38-2.07,8.61,8.61,0,0,1,3.1,2.31V28.87h1.83V34h-1.83a6,6,0,0,0-.87-2.29A5.79,5.79,0,0,0,290.89,30a8.31,8.31,0,0,0-4.61-1.36,7.55,7.55,0,0,0-5.8,2.42,9,9,0,0,0-2.25,6.24,8.68,8.68,0,0,0,2.31,6.24A7.79,7.79,0,0,0,286.4,46,7.71,7.71,0,0,0,291,44.63a7,7,0,0,0,1.77-1.86,14.19,14.19,0,0,0,1.48-3l1.77,1.06A14.76,14.76,0,0,1,294.32,44.11Z" fill="#161616"/><path d="M299.47,47.64V45.28h2.13v2.37Z" fill="#161616"/><path d="M317.59,47.64l-4.52-10H309V47.67h-2.13V28.9h-3v-1.8H314a5.87,5.87,0,0,1,4.05,1.42,4.61,4.61,0,0,1,1.63,3.64,5.31,5.31,0,0,1-1.15,3.46,6.15,6.15,0,0,1-3.37,1.8L319,45.84h2.66v1.8Zm-1-17.8a4.23,4.23,0,0,0-2.87-.95H309v6.92h4.14a5.3,5.3,0,0,0,3.31-.92,3.12,3.12,0,0,0,1.12-2.6A3.06,3.06,0,0,0,316.56,29.84Z" fill="#161616"/><path d="M323.8,47.64V45.28h2.13v2.37Z" fill="#161616"/></g></svg>