<svg xmlns="http://www.w3.org/2000/svg" xmlns:xlink="http://www.w3.org/1999/xlink" viewBox="0 0 200.37 59.2"><defs><linearGradient id="New_Gradient_Swatch" y1="29.6" x2="198.48" y2="29.6" gradientUnits="userSpaceOnUse"><stop offset="0" stop-color="#e6cdc3" stop-opacity="0"/><stop offset="1" stop-color="#b3b0a1"/></linearGradient><pattern id="_6_lpi_50_" data-name="6 lpi 50%" width="72" height="72" patternTransform="translate(38.71 -82.77) scale(0.77)" patternUnits="userSpaceOnUse" viewBox="0 0 72 72"><rect width="72" height="72" fill="none"/><line x1="71.75" y1="66" x2="144.25" y2="66" fill="none" stroke="#231f20" stroke-width="6"/><line x1="71.75" y1="42" x2="144.25" y2="42" fill="none" stroke="#231f20" stroke-width="6"/><line x1="71.75" y1="18" x2="144.25" y2="18" fill="none" stroke="#231f20" stroke-width="6"/><line x1="71.75" y1="54" x2="144.25" y2="54" fill="none" stroke="#231f20" stroke-width="6"/><line x1="71.75" y1="30" x2="144.25" y2="30" fill="none" stroke="#231f20" stroke-width="6"/><line x1="71.75" y1="6" x2="144.25" y2="6" fill="none" stroke="#231f20" stroke-width="6"/><line x1="-0.25" y1="66" x2="72.25" y2="66" fill="none" stroke="#231f20" stroke-width="6"/><line x1="-0.25" y1="42" x2="72.25" y2="42" fill="none" stroke="#231f20" stroke-width="6"/><line x1="-0.25" y1="18" x2="72.25" y2="18" fill="none" stroke="#231f20" stroke-width="6"/><line x1="-0.25" y1="54" x2="72.25" y2="54" fill="none" stroke="#231f20" stroke-width="6"/><line x1="-0.25" y1="30" x2="72.25" y2="30" fill="none" stroke="#231f20" stroke-width="6"/><line x1="-0.25" y1="6" x2="72.25" y2="6" fill="none" stroke="#231f20" stroke-width="6"/><line x1="-72.25" y1="66" x2="0.25" y2="66" fill="none" stroke="#231f20" stroke-width="6"/><line x1="-72.25" y1="42" x2="0.25" y2="42" fill="none" stroke="#231f20" stroke-width="6"/><line x1="-72.25" y1="18" x2="0.25" y2="18" fill="none" stroke="#231f20" stroke-width="6"/><line x1="-72.25" y1="54" x2="0.25" y2="54" fill="none" stroke="#231f20" stroke-width="6"/><line x1="-72.25" y1="30" x2="0.25" y2="30" fill="none" stroke="#231f20" stroke-width="6"/><line x1="-72.25" y1="6" x2="0.25" y2="6" fill="none" stroke="#231f20" stroke-width="6"/></pattern></defs><title>platform_small</title><g id="BoardStripe"><polygon points="0 0 198.47 0 124.21 59.2 0 21.42 0 0" fill="url(#New_Gradient_Swatch)"/><polygon points="0 0 198.47 0 124.21 59.2 0 21.42 0 0" fill="url(#_6_lpi_50_)"/></g></svg>