<svg id="Layer_1" data-name="Layer 1" xmlns="http://www.w3.org/2000/svg" xmlns:xlink="http://www.w3.org/1999/xlink" viewBox="0 0 1516.15 435.04"><defs><clipPath id="clip-path"><rect y="-242.46" width="1923" height="1080.67" fill="none"/></clipPath></defs><title>Babump_banner</title><g clip-path="url(#clip-path)"><path d="M543.34,99.94h68.29c34.65,0,46.48,22.44,46.48,44.85,0,16.18-6,32.94-22.54,36.74,12.71,2.48,24.61,15.83,24.61,39.17,0,28.67-12.44,48.91-48.13,48.91H543.34ZM610.41,169c13.73,0,21.13-7.89,21.13-22.52,0-18.18-11.51-22.1-21.13-22.1h-40V169Zm.81,76.15c10.32,0,22.06-4.07,22.06-25.57,0-14.15-6.24-26.94-22.06-26.94H570.38v52.5Z" fill="#010101"/><path d="M674.77,226.51c0-18.14,10.37-32.7,34.15-32.7,0,0,41.72.23,41.72,0,0,0,.23-10.43,0-10.66,0-13.49-6.61-16.57-17.39-16.57-12.88,0-39.86,1.64-54.47,2.7V152c16.3-5.69,34.57-7.61,57.52-7.77,23.86-.15,41.23,9.47,41.23,38.13v87.27H756.59l-5.95-14c-1,1.7-22.9,15.66-42.54,15.41-21.22-.41-33.34-14.63-33.34-32ZM714,248.17c15.38,0,36.69-10.36,36.69-10.36V211.4L713,214.22c-9.08.85-11.32,7.32-11.32,13.44v8c0,10.56,5.63,12.49,12.3,12.49" fill="#010101"/><path d="M799.06,87.65h26.59v65.48c12.56-5.46,30-8.46,40.39-8.46,34.43,0,40.32,28.15,40.32,64,0,34-8.82,62.35-40.32,62.35-15,0-33.08-8.72-40.16-14.26l-5.37,12.87H799.06Zm61.62,159.47c12.15,0,18.79-10.85,18.79-39.28,0-33.73-6.87-40.74-18.79-40.74-13.63,0-23.6,1.53-34.81,5.14V238.4a73.51,73.51,0,0,0,34.81,8.72" fill="#010101"/><path d="M925.72,146.53h26.89v83.66c0,13.35,6.77,18.68,16.24,18.68,15.06,0,22.88-3.82,35.45-11.59V146.53h26.89V269.62h-21l-5.91-13.56c-12.92,7.63-22.6,15.65-41.38,15.65-27.17,0-37.2-19.5-37.2-41.84Z" fill="#010101"/><path d="M1233.78,146.53h21.45l5.22,12.87c7.08-5.54,25.28-14.26,40.31-14.26,31.5,0,40.32,28.56,40.32,62.35,0,34.12-5.89,64-40.32,64-10.43,0-27.83-3-40.39-8.46V332.2h-26.59ZM1295.4,249c11.91,0,18.79-7,18.79-40.74,0-28.43-6.64-39.28-18.79-39.28a74.17,74.17,0,0,0-35,8.71v66.17c11.21,3.6,21.32,5.13,35,5.13" fill="#010101"/></g><path d="M1277.66,323.27a1.59,1.59,0,0,1,1.71-1.78h5.27a1.55,1.55,0,0,1,1.78,1.78v5.55c0,1.28-.78,1.64-1.78,1.64h-5.27a1.59,1.59,0,0,1-1.71-1.64Z" fill="#231f20"/><path d="M1295.08,292.67h6.44l1.81,4.16c3.64-2.39,6.94-4.8,12.7-4.8,8.34,0,11.42,6,11.42,12.85v25.58h-8.25V304.78c0-4.1-2.08-5.74-5-5.74-4.62,0-7,1.17-10.88,3.56v27.86h-8.26Z" fill="#231f20"/><path d="M1349.19,292.39c10.19,0,15.44,1.1,15.44,13.63,0,6.28-3.42,9.18-10.25,9.18h-13.45c0,7.58,2.23,8.64,7.69,8.64a95.85,95.85,0,0,0,15.3-.74v5.73c-5.49,1.86-12.88,2-18.79,2-9.61,0-12.45-5.22-12.45-19.43C1332.68,294.92,1337.32,292.39,1349.19,292.39Zm3.55,16.37c2.46,0,3.64-1.06,3.64-3.06,0-5.75-1-6.54-6.79-6.54-6.27,0-8.7.22-8.65,9.61Z" fill="#231f20"/><path d="M1368.23,294.38l6.45-1.78,1.53-10.53h6.73V292.6h9.39v6.76h-9.39v16.58c0,5.79,1.41,7.07,3.53,7.74,0,0,4.84,1.49,5.34,1.49v5.27H1384c-5.55,0-9.32-3.47-9.32-13.5V299.36h-6.45Z" fill="#231f20"/><g clip-path="url(#clip-path)"><polygon points="1130.38 401.86 1086.43 198.92 1066.84 315.55 -321 315.55 -321 289.28 1044.61 289.28 1083.16 59.74 1135.33 300.56 1183.64 150.15 1218.05 305.94 1242.19 305.76 1242.38 332.03 1196.98 332.37 1178.94 250.69 1130.38 401.86" fill="#010101"/></g></svg>