<?xml version="1.0" standalone="no"?>
<!DOCTYPE svg PUBLIC "-//W3C//DTD SVG 20010904//EN"
 "http://www.w3.org/TR/2001/REC-SVG-20010904/DTD/svg10.dtd">
<svg version="1.0" xmlns="http://www.w3.org/2000/svg"
 width="500.000000pt" height="500.000000pt" viewBox="0 0 500.000000 500.000000"
 preserveAspectRatio="xMidYMid meet">
<metadata>
Created by potrace 1.11, written by Peter Selinger 2001-2013
</metadata>
<g transform="translate(0.000000,500.000000) scale(0.100000,-0.100000)"
fill="#000000" stroke="none">
<path d="M3795 3213 c-198 -28 -448 -154 -516 -261 -58 -91 -29 -188 64 -213
42 -11 44 -10 207 74 203 105 255 121 380 121 126 -1 189 -25 274 -105 88 -82
119 -151 124 -279 5 -120 -18 -190 -87 -263 -79 -85 -153 -118 -309 -138 -146
-18 -202 -59 -202 -144 0 -45 23 -87 61 -109 17 -10 70 -21 127 -27 187 -20
281 -56 367 -143 170 -169 165 -467 -9 -639 -145 -142 -382 -183 -619 -105
-34 11 -127 49 -207 85 -170 77 -218 86 -270 51 -103 -69 -82 -202 47 -300 73
-55 226 -125 338 -154 147 -38 388 -45 533 -15 218 45 378 140 497 296 148
192 192 464 115 697 -58 171 -196 309 -372 373 l-61 22 58 27 c220 100 324
266 325 516 0 172 -48 296 -162 416 -151 159 -320 226 -560 223 -62 -1 -126
-4 -143 -6z"/>
<path d="M2610 2846 c-92 -39 -1565 -713 -1638 -750 -112 -56 -162 -109 -162
-172 0 -38 35 -90 84 -123 23 -16 426 -208 896 -427 734 -341 863 -398 911
-402 95 -7 149 39 149 126 0 52 -33 100 -97 138 -29 17 -374 179 -768 360
-393 180 -712 331 -707 335 4 3 332 153 729 333 397 180 742 341 767 357 70
47 95 124 61 189 -32 63 -127 77 -225 36z"/>
</g>
</svg>
